<?xml version="1.0" encoding="utf-8"?>
<!-- Generator: Adobe Illustrator 16.0.0, SVG Export Plug-In . SVG Version: 6.00 Build 0)  -->
<!DOCTYPE svg PUBLIC "-//W3C//DTD SVG 1.1//EN" "http://www.w3.org/Graphics/SVG/1.1/DTD/svg11.dtd">
<svg version="1.1" xmlns="http://www.w3.org/2000/svg" xmlns:xlink="http://www.w3.org/1999/xlink" x="0px" y="0px"
height="160px" width="160px" viewBox="-5 -5 100 100">
<g id="layer">
	<path fill="#E24042" d="M62.479,11.769c-5.293-2.67-11.006-4.024-16.981-4.024c-5.935,0-11.612,1.336-16.876,3.971L25.154,4.79
		C31.504,1.611,38.348,0,45.497,0c7.198,0,14.085,1.633,20.47,4.854L62.479,11.769z"/>
	<path fill="#E24042" d="M7.986,44.726c-0.064,5.928,1.238,11.653,3.871,17.017c2.615,5.327,6.316,9.835,11.001,13.398l-4.688,6.164
		c-5.652-4.299-10.114-9.732-13.265-16.149c-3.172-6.461-4.741-13.364-4.664-20.515L7.986,44.726z"/>
	<path fill="#E24042" d="M68.321,75.251c4.768-3.522,8.551-8.014,11.242-13.349c2.673-5.298,4.038-10.969,4.056-16.854l7.744,0.023
		c-0.021,7.101-1.666,13.937-4.886,20.319c-3.242,6.426-7.803,11.84-13.554,16.089L68.321,75.251z"/>
</g>
</svg>
